<svg width="25" height="24" viewBox="0 0 25 24" fill="none" xmlns="http://www.w3.org/2000/svg">
<g clip-path="url(#clip0_187_560)">
<path d="M11.3799 21.9463H14.5627" stroke="#161616" stroke-width="1.5" stroke-linecap="round" stroke-linejoin="round"/>
<path d="M19.3368 10.0112C19.3368 8.32292 18.6662 6.70379 17.4724 5.50998C16.2786 4.31618 14.6594 3.64551 12.9711 3.64551C11.2828 3.64551 9.66369 4.31618 8.46987 5.50998C7.27608 6.70379 6.6054 8.32292 6.6054 10.0112V15.5812C6.6054 16.2143 6.3539 16.8216 5.90623 17.2693C5.45856 17.7169 4.85136 17.9684 4.21826 17.9684H21.724C21.0909 17.9684 20.4836 17.7169 20.0359 17.2693C19.5883 16.8216 19.3368 16.2143 19.3368 15.5812V10.0112Z" stroke="#161616" stroke-width="1.5" stroke-linecap="round" stroke-linejoin="round"/>
<path d="M2.62695 9.80397C2.62781 8.28915 2.98906 6.79628 3.68086 5.44866C4.37265 4.10104 5.37514 2.93735 6.60552 2.05371" stroke="#161616" stroke-width="1.5" stroke-linecap="round" stroke-linejoin="round"/>
<path d="M23.3155 9.80397C23.3147 8.28915 22.9534 6.79628 22.2616 5.44866C21.5698 4.10104 20.5672 2.93735 19.3369 2.05371" stroke="#161616" stroke-width="1.5" stroke-linecap="round" stroke-linejoin="round"/>
</g>
<defs>
<clipPath id="clip0_187_560">
<rect width="24" height="24" fill="white" transform="translate(0.971191)"/>
</clipPath>
</defs>
</svg>
