<svg width="24" height="24" viewBox="0 0 24 24" fill="none" xmlns="http://www.w3.org/2000/svg">
<path d="M23 9.07692C23 8.62809 22.8216 8.19765 22.5043 7.88028C22.187 7.56292 21.7565 7.38462 21.3077 7.38462H17.9231L15.3846 4H8.61539L6.07692 7.38462H2.69231C2.24347 7.38462 1.81304 7.56292 1.49567 7.88028C1.1783 8.19765 1 8.62809 1 9.07692V19.2308C1 19.6796 1.1783 20.1101 1.49567 20.4274C1.81304 20.7447 2.24347 20.9231 2.69231 20.9231H21.3077C21.7565 20.9231 22.187 20.7447 22.5043 20.4274C22.8216 20.1101 23 19.6796 23 19.2308V9.07692Z" stroke="#372D20" stroke-width="2" stroke-linecap="round" stroke-linejoin="round"/>
<path d="M12.0001 17.1154C14.103 17.1154 15.8078 15.4106 15.8078 13.3077C15.8078 11.2048 14.103 9.5 12.0001 9.5C9.89715 9.5 8.19238 11.2048 8.19238 13.3077C8.19238 15.4106 9.89715 17.1154 12.0001 17.1154Z" stroke="#372D20" stroke-width="2" stroke-linecap="round" stroke-linejoin="round"/>
</svg>
