<svg width="21" height="20" viewBox="0 0 21 20" fill="none" xmlns="http://www.w3.org/2000/svg">
<path d="M19.1204 7.34771C19.1204 6.99598 18.9806 6.65866 18.7319 6.40995C18.4833 6.16125 18.1459 6.02152 17.7942 6.02152H15.1418L13.1525 3.36914H7.84774L5.85845 6.02152H3.20607C2.85434 6.02152 2.51702 6.16125 2.26831 6.40995C2.01961 6.65866 1.87988 6.99598 1.87988 7.34771V15.3049C1.87988 15.6566 2.01961 15.9939 2.26831 16.2426C2.51702 16.4913 2.85434 16.631 3.20607 16.631H17.7942C18.1459 16.631 18.4833 16.4913 18.7319 16.2426C18.9806 15.9939 19.1204 15.6566 19.1204 15.3049V7.34771Z" stroke="white" stroke-width="1.5" stroke-linecap="round" stroke-linejoin="round"/>
<path d="M10.5 13.6475C12.148 13.6475 13.484 12.3116 13.484 10.6636C13.484 9.01564 12.148 7.67969 10.5 7.67969C8.85206 7.67969 7.51611 9.01564 7.51611 10.6636C7.51611 12.3116 8.85206 13.6475 10.5 13.6475Z" stroke="white" stroke-width="1.5" stroke-linecap="round" stroke-linejoin="round"/>
</svg>
