<svg width="24" height="24" viewBox="0 0 24 24" fill="none" xmlns="http://www.w3.org/2000/svg">
<path d="M22.0199 8.61997C22.0199 8.21153 21.8576 7.81984 21.5688 7.53103C21.2801 7.24223 20.8883 7.07998 20.4799 7.07998H17.3999L15.0899 4H8.92996L6.61997 7.07998H3.53999C3.13155 7.07998 2.73986 7.24223 2.45105 7.53103C2.16225 7.81984 2 8.21153 2 8.61997V17.8599C2 18.2683 2.16225 18.6601 2.45105 18.9488C2.73986 19.2376 3.13155 19.3999 3.53999 19.3999H20.4799C20.8883 19.3999 21.2801 19.2376 21.5688 18.9488C21.8576 18.6601 22.0199 18.2683 22.0199 17.8599V8.61997Z" stroke="#6D5F4C" stroke-width="1.5" stroke-linecap="round" stroke-linejoin="round"/>
<path d="M12.0099 15.9348C13.9236 15.9348 15.4749 14.3835 15.4749 12.4699C15.4749 10.5562 13.9236 9.00488 12.0099 9.00488C10.0962 9.00488 8.54492 10.5562 8.54492 12.4699C8.54492 14.3835 10.0962 15.9348 12.0099 15.9348Z" stroke="#6D5F4C" stroke-width="1.5" stroke-linecap="round" stroke-linejoin="round"/>
</svg>
