<svg width="60" height="60" viewBox="0 0 60 60" fill="none" xmlns="http://www.w3.org/2000/svg">
<rect x="0.5" y="0.5" width="59" height="59" stroke="#6D5F4C"/>
<path d="M44.6087 28.6084H15.3913C14.6229 28.6084 14 29.2313 14 29.9997C14 30.7681 14.6229 31.391 15.3913 31.391H44.6087C45.377 31.391 45.9999 30.7681 45.9999 29.9997C46 29.2313 45.377 28.6084 44.6087 28.6084Z" fill="#6D5F4C"/>
<path d="M15.3913 21.6517H44.6087C45.377 21.6517 45.9999 21.0288 45.9999 20.2604C45.9999 19.492 45.377 18.8691 44.6087 18.8691H15.3913C14.6229 18.8691 14 19.492 14 20.2604C14 21.0288 14.6229 21.6517 15.3913 21.6517Z" fill="#6D5F4C"/>
<path d="M44.6087 38.3477H15.3913C14.6229 38.3477 14 38.9706 14 39.739C14 40.5074 14.6229 41.1303 15.3913 41.1303H44.6087C45.377 41.1303 45.9999 40.5074 45.9999 39.739C46 38.9706 45.377 38.3477 44.6087 38.3477Z" fill="#6D5F4C"/>
</svg>
