<svg width="40" height="40" viewBox="0 0 40 40" fill="none" xmlns="http://www.w3.org/2000/svg">
<rect x="0.5" y="0.5" width="39" height="39" stroke="#6D5F4C"/>
<path d="M28.2608 18.7607H12.7391C12.3309 18.7607 12 19.0917 12 19.4999C12 19.9081 12.3309 20.239 12.7391 20.239H28.2608C28.6691 20.239 29 19.9081 29 19.4999C29 19.0917 28.6691 18.7607 28.2608 18.7607Z" fill="#6D5F4C"/>
<path d="M12.7391 15.0652H28.2608C28.6691 15.0652 29 14.7342 29 14.326C29 13.9178 28.6691 13.5869 28.2608 13.5869H12.7391C12.3309 13.5869 12 13.9178 12 14.326C12 14.7342 12.3309 15.0652 12.7391 15.0652Z" fill="#6D5F4C"/>
<path d="M28.2608 23.9346H12.7391C12.3309 23.9346 12 24.2655 12 24.6737C12 25.0819 12.3309 25.4128 12.7391 25.4128H28.2608C28.6691 25.4128 29 25.0819 29 24.6737C29 24.2655 28.6691 23.9346 28.2608 23.9346Z" fill="#6D5F4C"/>
</svg>
