<svg width="40" height="40" viewBox="0 0 40 40" fill="none" xmlns="http://www.w3.org/2000/svg">
<path d="M2.75513 30.6119C2.75513 32.0772 3.94096 33.265 5.40376 33.265H34.5964C36.059 33.265 37.2449 32.0772 37.2449 30.6119V25.2155C34.9519 24.593 33.2651 22.4936 33.2651 19.9997C33.2651 17.5057 34.9519 15.4064 37.2449 14.7838V9.38744C37.2449 7.9222 36.059 6.73438 34.5964 6.73438H5.40376C3.94097 6.73438 2.75513 7.92218 2.75513 9.38744V14.7722C5.07045 15.3798 6.77865 17.4899 6.77865 19.9997C6.77865 22.5094 5.07045 24.6196 2.75513 25.2272V30.6119Z" stroke="#372D20" stroke-width="2.3" stroke-linecap="round" stroke-linejoin="round"/>
<path d="M13.4219 26.6325L26.6872 13.3672" stroke="#372D20" stroke-width="2.3" stroke-linecap="round" stroke-linejoin="round"/>
<path d="M14.7484 16.0202C15.481 16.0202 16.0749 15.4263 16.0749 14.6937C16.0749 13.9611 15.481 13.3672 14.7484 13.3672C14.0158 13.3672 13.4219 13.9611 13.4219 14.6937C13.4219 15.4263 14.0158 16.0202 14.7484 16.0202Z" stroke="#372D20" stroke-width="2.3" stroke-linecap="round" stroke-linejoin="round"/>
<path d="M25.3605 26.6326C26.0931 26.6326 26.687 26.0386 26.687 25.306C26.687 24.5734 26.0931 23.9795 25.3605 23.9795C24.6279 23.9795 24.0339 24.5734 24.0339 25.306C24.0339 26.0386 24.6279 26.6326 25.3605 26.6326Z" stroke="#372D20" stroke-width="2.3" stroke-linecap="round" stroke-linejoin="round"/>
</svg>
