<svg width="40" height="40" viewBox="0 0 40 40" fill="none" xmlns="http://www.w3.org/2000/svg">
<g clip-path="url(#clip0_671_348)">
<path fill-rule="evenodd" clip-rule="evenodd" d="M35.2346 21.1765C34.6604 28.6706 28.6699 34.6588 21.1757 35.2353V30.5882H18.8228V35.2353C11.3287 34.6588 5.34043 28.6706 4.76633 21.1765H9.41104V18.8235H4.76633C5.34043 11.3294 11.3287 5.34117 18.8228 4.76471V9.41177H21.1757V4.76469C28.6699 5.34117 34.6604 11.3294 35.2346 18.8235H30.5875V21.1765H35.2346V21.1765ZM37.5875 18.8235C37.004 10.0329 29.9687 2.99529 21.1757 2.41177V0H18.8228V2.41177C10.0322 2.99531 2.99691 10.0329 2.41337 18.8235H-0.000732422V21.1765H2.41337C2.99691 29.9671 10.0322 37.0047 18.8228 37.5882V40H21.1757V37.5882C29.9687 37.0047 37.004 29.9671 37.5875 21.1765H39.9993V18.8235H37.5875V18.8235ZM20.0002 25.8823C16.7579 25.8823 14.1179 23.2423 14.1179 20C14.1179 16.7576 16.7579 14.1176 20.0002 14.1176C23.2426 14.1176 25.8826 16.7576 25.8826 20C25.8826 23.2424 23.2426 25.8823 20.0002 25.8823ZM20.0002 11.7647C15.459 11.7647 11.7649 15.4588 11.7649 20C11.7649 24.5412 15.459 28.2353 20.0002 28.2353C24.5414 28.2353 28.2355 24.5412 28.2355 20C28.2355 15.4588 24.5414 11.7647 20.0002 11.7647Z" fill="#372D20"/>
</g>
<defs>
<clipPath id="clip0_671_348">
<rect width="40" height="40" fill="white"/>
</clipPath>
</defs>
</svg>
