<svg width="24" height="24" viewBox="0 0 24 24" fill="none" xmlns="http://www.w3.org/2000/svg">
<path d="M21.9192 10.7996C22.1832 11.1287 22.3294 11.5563 22.3294 11.9997C22.3294 12.4431 22.1832 12.8707 21.9192 13.1998C20.2475 15.2238 16.4422 19.1644 12.0001 19.1644C7.55807 19.1644 3.75285 15.2238 2.0811 13.1998C1.81706 12.8707 1.6709 12.4431 1.6709 11.9997C1.6709 11.5563 1.81706 11.1287 2.0811 10.7996C3.75285 8.77556 7.55807 4.83496 12.0001 4.83496C16.4422 4.83496 20.2475 8.77556 21.9192 10.7996Z" stroke="#161616" stroke-width="1.71" stroke-linecap="round" stroke-linejoin="round"/>
<path d="M11.9997 15.184C13.7583 15.184 15.184 13.7583 15.184 11.9997C15.184 10.2411 13.7583 8.81543 11.9997 8.81543C10.2411 8.81543 8.81543 10.2411 8.81543 11.9997C8.81543 13.7583 10.2411 15.184 11.9997 15.184Z" stroke="#161616" stroke-width="1.71" stroke-linecap="round" stroke-linejoin="round"/>
</svg>
