<svg width="148" height="60" viewBox="0 0 148 60" fill="none" xmlns="http://www.w3.org/2000/svg">
<path d="M36.8265 34.8158V28.9737C36.8265 19.3421 36.3526 13.2632 35.405 10.7368C34.3521 7.84211 32.8516 6.05263 30.9037 5.36842C29.7981 4.94737 28.4556 4.73684 26.8762 4.73684C25.2968 4.73684 23.9279 4.94737 22.7697 5.36842C21.6641 5.78948 20.7428 6.52632 20.0057 7.57895C19.2687 8.63158 18.6632 9.73685 18.1894 10.8947C17.7682 12.0526 17.426 13.6842 17.1628 15.7895C16.8469 18.8421 16.689 23.3421 16.689 29.2895V34.9737C16.689 41.3947 16.9259 45.9737 17.3997 48.7105C17.9262 51.3947 18.5579 53.3158 19.295 54.4737C20.9271 57.0526 23.4541 58.3421 26.8762 58.3421C31.0353 58.3421 33.7203 56.6053 34.9312 53.1316C36.1947 49.6053 36.8265 43.5 36.8265 34.8158ZM26.7182 60C17.9262 60 11.3453 57.6316 6.97559 52.8947C2.65853 48.1053 0.5 41.2105 0.5 32.2105C0.5 23.1579 2.81647 16.0526 7.44941 10.8947C12.135 5.68421 18.7422 3.07895 27.271 3.07895C35.7999 3.07895 42.2228 5.55263 46.5399 10.5C50.9096 15.3947 53.0944 22.3684 53.0944 31.4211C53.0944 40.4737 50.8832 47.5 46.4609 52.5C42.0912 57.5 35.5103 60 26.7182 60Z" fill="#372D20"/>
<path d="M59.2776 0H78.6254V57.7895H83.0477V59.2105H59.5934V57.7895H63.9368V1.42105H59.2776V0Z" fill="#372D20"/>
<path d="M84.2644 0H103.612V57.7895H108.035V59.2105H84.5802V57.7895H88.9236V1.42105H84.2644V0Z" fill="#372D20"/>
<path d="M130.336 60C123.545 60 118.438 58.2632 115.016 54.7895C111.647 51.2632 109.962 46.3947 109.962 40.1842C109.962 33.9211 111.857 29.1316 115.648 25.8158C119.491 22.5 124.361 20.8421 130.257 20.8421C142.208 20.8421 147.947 26.8421 147.473 38.8421H125.203V41.9211C125.203 47.0789 125.861 50.9737 127.177 53.6053C128.494 56.2368 130.784 57.5526 134.048 57.5526C140.155 57.5526 144.156 54.2895 146.051 47.7632L147.473 48C146.473 51.7895 144.656 54.7368 142.024 56.8421C139.444 58.9474 135.548 60 130.336 60ZM125.282 37.2632H133.416V33.3947C133.416 29.1316 133.153 26.2368 132.626 24.7105C132.153 23.1316 131.152 22.3421 129.626 22.3421C128.151 22.3421 127.046 23.1842 126.309 24.8684C125.624 26.5 125.282 29.3421 125.282 33.3947V37.2632Z" fill="#372D20"/>
</svg>
