<svg width="98" height="40" viewBox="0 0 98 40" fill="none" xmlns="http://www.w3.org/2000/svg">
<path d="M24.2176 23.2105V19.3158C24.2176 12.8947 23.9018 8.84211 23.27 7.1579C22.568 5.22807 21.5677 4.03509 20.2691 3.57895C19.5321 3.29825 18.6371 3.15789 17.5841 3.15789C16.5312 3.15789 15.6186 3.29825 14.8465 3.57895C14.1094 3.85965 13.4952 4.35088 13.0038 5.05263C12.5125 5.75439 12.1088 6.49123 11.7929 7.26316C11.5122 8.03509 11.284 9.12281 11.1085 10.5263C10.8979 12.5614 10.7926 15.5614 10.7926 19.5263V23.3158C10.7926 27.5965 10.9506 30.6491 11.2665 32.4737C11.6175 34.2632 12.0386 35.5439 12.53 36.3158C13.618 38.0351 15.3027 38.8947 17.5841 38.8947C20.3569 38.8947 22.1469 37.7368 22.9541 35.4211C23.7965 33.0702 24.2176 29 24.2176 23.2105ZM17.4788 40C11.6175 40 7.2302 38.4211 4.31706 35.2632C1.43902 32.0702 0 27.4737 0 21.4737C0 15.4386 1.54431 10.7018 4.63294 7.26316C7.75667 3.78947 12.1615 2.05263 17.8474 2.05263C23.5332 2.05263 27.8152 3.70176 30.6932 7C33.6064 10.2632 35.0629 14.9123 35.0629 20.9474C35.0629 26.9825 33.5888 31.6667 30.6406 35C27.7275 38.3333 23.3402 40 17.4788 40Z" fill="#372D20"/>
<path d="M39.185 0H52.0836V38.5263H55.0318V39.4737H39.3956V38.5263H42.2912V0.947369H39.185V0Z" fill="#372D20"/>
<path d="M55.8429 0H68.7414V38.5263H71.6897V39.4737H56.0535V38.5263H58.9491V0.947369H55.8429V0Z" fill="#372D20"/>
<path d="M86.5575 40C82.0299 40 78.6254 38.8421 76.344 36.5263C74.0977 34.1754 72.9746 30.9298 72.9746 26.7895C72.9746 22.614 74.2381 19.4211 76.7652 17.2105C79.3273 15 82.5739 13.8947 86.5049 13.8947C94.4721 13.8947 98.2978 17.8947 97.9819 25.8947H83.1355V27.9474C83.1355 31.386 83.5742 33.9825 84.4516 35.7368C85.3291 37.4912 86.8559 38.3684 89.0319 38.3684C93.1033 38.3684 95.7708 36.193 97.0343 31.8421L97.9819 32C97.3151 34.5263 96.1042 36.4912 94.3493 37.8947C92.6295 39.2982 90.0322 40 86.5575 40ZM83.1881 24.8421H88.6108V22.2632C88.6108 19.4211 88.4353 17.4912 88.0843 16.4737C87.7684 15.4211 87.1015 14.8947 86.0837 14.8947C85.101 14.8947 84.3639 15.4561 83.8725 16.5789C83.4162 17.6667 83.1881 19.5614 83.1881 22.2632V24.8421Z" fill="#372D20"/>
</svg>
