<svg width="75" height="30" viewBox="0 0 75 30" fill="none" xmlns="http://www.w3.org/2000/svg">
<path d="M18.7868 17.4079V14.4868C18.7868 9.67105 18.5483 6.63158 18.0712 5.36842C17.5412 3.92105 16.7858 3.02632 15.8053 2.68421C15.2487 2.47368 14.5729 2.36842 13.7778 2.36842C12.9827 2.36842 12.2937 2.47368 11.7106 2.68421C11.154 2.89474 10.6902 3.26316 10.3192 3.78947C9.94818 4.31579 9.6434 4.86842 9.40487 5.44737C9.19285 6.02632 9.02059 6.84211 8.88807 7.89474C8.72906 9.42105 8.64955 11.6711 8.64955 14.6447V17.4868C8.64955 20.6974 8.76881 22.9868 9.00733 24.3553C9.27236 25.6974 9.59039 26.6579 9.96143 27.2368C10.783 28.5263 12.0551 29.1711 13.7778 29.1711C15.8715 29.1711 17.2231 28.3026 17.8327 26.5658C18.4688 24.8026 18.7868 21.75 18.7868 17.4079ZM13.6983 30C9.27236 30 5.95954 28.8158 3.75982 26.4474C1.58661 24.0526 0.5 20.6053 0.5 16.1053C0.5 11.5789 1.66611 8.02632 3.99834 5.44737C6.35707 2.84211 9.68315 1.53947 13.9766 1.53947C18.27 1.53947 21.5033 2.77632 23.6765 5.25C25.8762 7.69737 26.9761 11.1842 26.9761 15.7105C26.9761 20.2368 25.863 23.75 23.6368 26.25C21.4371 28.75 18.1242 30 13.6983 30Z" fill="#372D20"/>
<path d="M30.0887 0H39.8284V28.8947H42.0546V29.6053H30.2477V28.8947H32.4342V0.710527H30.0887V0Z" fill="#372D20"/>
<path d="M42.6671 0H52.4068V28.8947H54.633V29.6053H42.8261V28.8947H45.0126V0.710527H42.6671V0Z" fill="#372D20"/>
<path d="M65.8598 30C62.4409 30 59.8702 29.1316 58.1475 27.3947C56.4513 25.6316 55.6033 23.1974 55.6033 20.0921C55.6033 16.9605 56.5573 14.5658 58.4655 12.9079C60.4002 11.25 62.8517 10.4211 65.82 10.4211C71.8361 10.4211 74.7249 13.4211 74.4864 19.4211H63.2758V20.9605C63.2758 23.5395 63.607 25.4868 64.2696 26.8026C64.9322 28.1184 66.085 28.7763 67.7282 28.7763C70.8025 28.7763 72.8167 27.1447 73.7708 23.8816L74.4864 24C73.9828 25.8947 73.0685 27.3684 71.7433 28.4211C70.4447 29.4737 68.4835 30 65.8598 30ZM63.3155 18.6316H67.4102V16.6974C67.4102 14.5658 67.2776 13.1184 67.0126 12.3553C66.7741 11.5658 66.2706 11.1711 65.502 11.1711C64.7599 11.1711 64.2033 11.5921 63.8323 12.4342C63.4878 13.25 63.3155 14.6711 63.3155 16.6974V18.6316Z" fill="#372D20"/>
</svg>
