<svg width="73" height="30" viewBox="0 0 73 30" fill="none" xmlns="http://www.w3.org/2000/svg">
<path d="M18.0397 17.4079V14.4868C18.0397 9.67105 17.8044 6.63158 17.3338 5.36842C16.8109 3.92105 16.0658 3.02632 15.0984 2.68421C14.5494 2.47368 13.8827 2.36842 13.0984 2.36842C12.314 2.36842 11.6343 2.47368 11.0591 2.68421C10.5101 2.89474 10.0525 3.26316 9.68652 3.78947C9.3205 4.31579 9.01984 4.86842 8.78454 5.44737C8.57538 6.02632 8.40544 6.84211 8.27472 7.89474C8.11785 9.42105 8.03942 11.6711 8.03942 14.6447V17.4868C8.03942 20.6974 8.15707 22.9868 8.39237 24.3553C8.65382 25.6974 8.96755 26.6579 9.33357 27.2368C10.144 28.5263 11.399 29.1711 13.0984 29.1711C15.1638 29.1711 16.4972 28.3026 17.0985 26.5658C17.7259 24.8026 18.0397 21.75 18.0397 17.4079ZM13.0199 30C8.65382 30 5.38576 28.8158 3.21577 26.4474C1.07192 24.0526 0 20.6053 0 16.1053C0 11.5789 1.15036 8.02632 3.45107 5.44737C5.77793 2.84211 9.05905 1.53947 13.2945 1.53947C17.5299 1.53947 20.7195 2.77632 22.8633 5.25C25.0333 7.69737 26.1183 11.1842 26.1183 15.7105C26.1183 20.2368 25.0202 23.75 22.8241 26.25C20.6541 28.75 17.3861 30 13.0199 30Z" fill="#6D5F4C"/>
<path d="M29.1889 0H38.7969V28.8947H40.9931V29.6053H29.3457V28.8947H31.5026V0.710527H29.1889V0Z" fill="#6D5F4C"/>
<path d="M41.5973 0H51.2054V28.8947H53.4015V29.6053H41.7541V28.8947H43.911V0.710527H41.5973V0Z" fill="#6D5F4C"/>
<path d="M64.4765 30C61.1039 30 58.5679 29.1316 56.8685 27.3947C55.1952 25.6316 54.3586 23.1974 54.3586 20.0921C54.3586 16.9605 55.2998 14.5658 57.1822 12.9079C59.0908 11.25 61.5091 10.4211 64.4373 10.4211C70.3721 10.4211 73.2218 13.4211 72.9865 19.4211H61.9274V20.9605C61.9274 23.5395 62.2542 25.4868 62.9079 26.8026C63.5615 28.1184 64.6988 28.7763 66.3197 28.7763C69.3525 28.7763 71.3394 27.1447 72.2806 23.8816L72.9865 24C72.4898 25.8947 71.5878 27.3684 70.2806 28.4211C68.9995 29.4737 67.0648 30 64.4765 30ZM61.9667 18.6316H66.006V16.6974C66.006 14.5658 65.8753 13.1184 65.6138 12.3553C65.3785 11.5658 64.8818 11.1711 64.1236 11.1711C63.3915 11.1711 62.8425 11.5921 62.4765 12.4342C62.1366 13.25 61.9667 14.6711 61.9667 16.6974V18.6316Z" fill="#6D5F4C"/>
</svg>
