<svg width="122" height="32" viewBox="0 0 122 32" fill="none" xmlns="http://www.w3.org/2000/svg">
<path d="M63.2753 18.5684V15.4526C63.2753 10.3158 63.0239 7.07368 62.521 5.72632C61.9623 4.18246 61.1662 3.22807 60.1326 2.86316C59.5459 2.6386 58.8336 2.52632 57.9955 2.52632C57.1575 2.52632 56.4312 2.6386 55.8166 2.86316C55.2299 3.08772 54.7411 3.4807 54.35 4.04211C53.9589 4.60351 53.6376 5.19298 53.3862 5.81053C53.1627 6.42807 52.9812 7.29825 52.8415 8.42105C52.6739 10.0491 52.5901 12.4491 52.5901 15.6211V18.6526C52.5901 22.0772 52.7158 24.5193 52.9672 25.9789C53.2465 27.4105 53.5818 28.4351 53.9729 29.0526C54.8388 30.4281 56.1797 31.1158 57.9955 31.1158C60.2024 31.1158 61.6271 30.1895 62.2696 28.3368C62.94 26.4561 63.2753 23.2 63.2753 18.5684ZM57.9117 32C53.2465 32 49.7546 30.7368 47.436 28.2105C45.1453 25.6561 44 21.9789 44 17.1789C44 12.3509 45.2291 8.5614 47.6874 5.81053C50.1737 3.03158 53.6795 1.64211 58.205 1.64211C62.7305 1.64211 66.1386 2.9614 68.4293 5.6C70.7479 8.21053 71.9072 11.9298 71.9072 16.7579C71.9072 21.586 70.734 25.3333 68.3874 28C66.0688 30.6667 62.5769 32 57.9117 32Z" fill="#80725E"/>
<path d="M75.1881 0H85.4543V30.8211H87.8008V31.5789H75.3557V30.8211H77.6604V0.757895H75.1881V0Z" fill="#80725E"/>
<path d="M88.4464 0H98.7126V30.8211H101.059V31.5789H88.614V30.8211H90.9187V0.757895H88.4464V0Z" fill="#80725E"/>
<path d="M112.893 32C109.289 32 106.579 31.0737 104.764 29.2211C102.976 27.3404 102.082 24.7439 102.082 21.4316C102.082 18.0912 103.087 15.5368 105.099 13.7684C107.138 12 109.722 11.1158 112.851 11.1158C119.192 11.1158 122.237 14.3158 121.986 20.7158H110.169V22.3579C110.169 25.1088 110.518 27.186 111.217 28.5895C111.915 29.993 113.13 30.6947 114.862 30.6947C118.103 30.6947 120.226 28.9544 121.231 25.4737L121.986 25.6C121.455 27.6211 120.491 29.193 119.094 30.3158C117.726 31.4386 115.658 32 112.893 32ZM110.211 19.8737H114.527V17.8105C114.527 15.5368 114.387 13.993 114.108 13.1789C113.856 12.3368 113.326 11.9158 112.516 11.9158C111.733 11.9158 111.147 12.3649 110.756 13.2632C110.393 14.1333 110.211 15.6491 110.211 17.8105V19.8737Z" fill="#80725E"/>
<path d="M16 0C16 0 16.8828 8.2399 20.3215 11.6785C23.7601 15.1172 32 16 32 16C32 16 23.7601 16.8828 20.3215 20.3215C16.8828 23.7601 16 32 16 32C16 32 15.1172 23.7601 11.6785 20.3215C8.2399 16.8828 0 16 0 16C0 16 8.2399 15.1172 11.6785 11.6785C15.1172 8.2399 16 0 16 0Z" fill="#80725E"/>
<path d="M26.4 0C26.4 0 26.709 2.88396 27.9125 4.08749C29.116 5.29102 32 5.6 32 5.6C32 5.6 29.116 5.90898 27.9125 7.11251C26.709 8.31604 26.4 11.2 26.4 11.2C26.4 11.2 26.091 8.31604 24.8875 7.11251C23.684 5.90898 20.8 5.6 20.8 5.6C20.8 5.6 23.684 5.29102 24.8875 4.08749C26.091 2.88396 26.4 0 26.4 0Z" fill="#80725E"/>
</svg>
