<svg width="20" height="20" viewBox="0 0 20 20" fill="none" xmlns="http://www.w3.org/2000/svg">
<path d="M9.24416 14.4628C9.24416 13.1405 9.44657 12.0937 9.85138 11.3223C10.2746 10.5326 10.9646 9.84389 11.9214 9.2562C12.6391 8.81543 13.1819 8.42975 13.5499 8.09917C13.9363 7.75023 14.1939 7.3921 14.3227 7.02479C14.4515 6.63912 14.5159 6.1708 14.5159 5.61983C14.5159 4.66483 14.1939 3.87511 13.5499 3.25069C12.9243 2.62626 12.0502 2.31405 10.9278 2.31405C9.56617 2.31405 8.51734 2.66299 7.78132 3.36088C7.06369 4.05877 6.63128 5.06887 6.48408 6.39118L4 6.2259C4.1104 5.01377 4.46001 3.93939 5.04883 3.00275C5.63765 2.06611 6.42887 1.3315 7.42251 0.798898C8.41614 0.266299 9.58457 0 10.9278 0C12.1238 0 13.1727 0.238751 14.0743 0.716252C14.9943 1.19376 15.712 1.85491 16.2272 2.69972C16.7424 3.54454 17 4.51791 17 5.61983C17 6.39118 16.8712 7.06152 16.6136 7.63085C16.3744 8.20018 15.9972 8.7236 15.482 9.2011C14.9667 9.6786 14.3135 10.1745 13.5223 10.6887C12.7863 11.1662 12.2803 11.6713 12.0042 12.2039C11.7466 12.7365 11.6178 13.4894 11.6178 14.4628H9.24416ZM8.80255 20V16.8871H11.9214V20H8.80255Z" fill="#372D20"/>
</svg>
