<svg width="20" height="20" viewBox="0 0 20 20" fill="none" xmlns="http://www.w3.org/2000/svg">
<g clip-path="url(#clip0_751_430)">
<path d="M0 2C0 0.895432 0.89543 0 2 0H7.16667C8.27123 0 9.16667 0.89543 9.16667 2V7.16667C9.16667 8.27123 8.27124 9.16667 7.16667 9.16667H2C0.895432 9.16667 0 8.27124 0 7.16667V2Z" fill="#372D20"/>
<path d="M10.8333 2C10.8333 0.895432 11.7288 0 12.8333 0H18C19.1046 0 20 0.89543 20 2V7.16667C20 8.27123 19.1046 9.16667 18 9.16667H12.8333C11.7288 9.16667 10.8333 8.27124 10.8333 7.16667V2Z" fill="#372D20"/>
<path d="M0 12.8333C0 11.7288 0.89543 10.8333 2 10.8333H7.16667C8.27123 10.8333 9.16667 11.7288 9.16667 12.8333V18C9.16667 19.1046 8.27124 20 7.16667 20H2C0.895432 20 0 19.1046 0 18V12.8333Z" fill="#372D20"/>
<path d="M10.8333 12.8333C10.8333 11.7288 11.7288 10.8333 12.8333 10.8333H18C19.1046 10.8333 20 11.7288 20 12.8333V18C20 19.1046 19.1046 20 18 20H12.8333C11.7288 20 10.8333 19.1046 10.8333 18V12.8333Z" fill="#372D20"/>
</g>
<defs>
<clipPath id="clip0_751_430">
<rect width="20" height="20" fill="white"/>
</clipPath>
</defs>
</svg>
