<svg width="512" height="512" viewBox="0 0 512 512" fill="none" xmlns="http://www.w3.org/2000/svg">
<g clip-path="url(#clip0_1198_382)">
<path d="M469.341 448V64C469.341 58.342 467.093 52.9158 463.093 48.9151C459.092 44.9143 453.666 42.6667 448.008 42.6667H341.341V0H448.008C464.981 0 481.26 6.74284 493.262 18.7452C505.265 30.7475 512.008 47.0261 512.008 64V448C512.008 464.974 505.265 481.253 493.262 493.255C481.26 505.257 464.981 512 448.008 512H341.341V469.333H448.008C453.666 469.333 459.092 467.086 463.093 463.085C467.093 459.084 469.341 453.658 469.341 448Z" fill="#372D20"/>
<path d="M386.624 210.752L288.789 112.917L258.624 143.082L349.589 234.048L-0.00012207 234.666V277.333L350.784 276.714L258.581 368.917L288.747 399.082L386.581 301.248C398.585 289.252 405.333 272.979 405.341 256.008C405.349 239.038 398.616 222.759 386.624 210.752Z" fill="#372D20"/>
</g>
<defs>
<clipPath id="clip0_1198_382">
<rect width="512" height="512" fill="white"/>
</clipPath>
</defs>
</svg>
