<svg width="512" height="512" viewBox="0 0 512 512" fill="none" xmlns="http://www.w3.org/2000/svg">
<g clip-path="url(#clip0_1198_382)">
<path d="M42.6667 448V64C42.6667 58.342 44.9143 52.9158 48.9151 48.9151C52.9158 44.9143 58.342 42.6667 64 42.6667H170.667V0H64C47.0261 0 30.7475 6.74284 18.7452 18.7452C6.74284 30.7475 0 47.0261 0 64L0 448C0 464.974 6.74284 481.253 18.7452 493.255C30.7475 505.257 47.0261 512 64 512H170.667V469.333H64C58.342 469.333 52.9158 467.086 48.9151 463.085C44.9143 459.084 42.6667 453.658 42.6667 448Z" fill="#372D20"/>
<path d="M493.291 210.752L395.456 112.917L365.291 143.082L456.256 234.048L106.667 234.666V277.333L457.451 276.714L365.248 368.917L395.413 399.082L493.248 301.248C505.252 289.252 512 272.979 512.008 256.008C512.016 239.038 505.283 222.759 493.291 210.752Z" fill="#372D20"/>
</g>
<defs>
<clipPath id="clip0_1198_382">
<rect width="512" height="512" fill="white"/>
</clipPath>
</defs>
</svg>
