<svg width="20" height="20" viewBox="0 0 20 20" fill="none" xmlns="http://www.w3.org/2000/svg">
<g clip-path="url(#clip0_751_423)">
<path d="M8.67383 18.2881H11.3262" stroke="#372D20" stroke-width="1.8" stroke-linecap="round" stroke-linejoin="round"/>
<path d="M15.3049 8.34187C15.3049 6.93496 14.746 5.58568 13.7511 4.59083C12.7563 3.59601 11.407 3.03711 10.0001 3.03711C8.59319 3.03711 7.24391 3.59601 6.24907 4.59083C5.25424 5.58568 4.69534 6.93496 4.69534 8.34187V12.9835C4.69534 13.5111 4.48575 14.0172 4.11269 14.3902C3.73963 14.7633 3.23364 14.9728 2.70605 14.9728H17.2942C16.7666 14.9728 16.2605 14.7633 15.8875 14.3902C15.5144 14.0172 15.3049 13.5111 15.3049 12.9835V8.34187Z" stroke="#372D20" stroke-width="1.8" stroke-linecap="round" stroke-linejoin="round"/>
<path d="M1.37988 8.16949C1.3806 6.90714 1.68164 5.66308 2.25814 4.54006C2.83463 3.41704 3.67004 2.4473 4.69536 1.71094" stroke="#372D20" stroke-width="1.8" stroke-linecap="round" stroke-linejoin="round"/>
<path d="M18.6202 8.16949C18.6195 6.90714 18.3185 5.66308 17.742 4.54006C17.1655 3.41704 16.33 2.4473 15.3047 1.71094" stroke="#372D20" stroke-width="1.8" stroke-linecap="round" stroke-linejoin="round"/>
</g>
<defs>
<clipPath id="clip0_751_423">
<rect width="20" height="20" fill="white"/>
</clipPath>
</defs>
</svg>
