<svg width="20" height="20" viewBox="0 0 20 20" fill="none" xmlns="http://www.w3.org/2000/svg">
<path d="M16.2503 0H3.75033C2.60199 0 1.66699 0.934167 1.66699 2.08333V19.9633L10.0003 13.9442L18.3337 19.9633V2.08333C18.3337 0.934167 17.3987 0 16.2503 0ZM16.667 16.7033L10.0003 11.8892L3.33366 16.7033V2.08333C3.33366 1.85417 3.52033 1.66667 3.75033 1.66667H16.2503C16.4803 1.66667 16.667 1.85417 16.667 2.08333V16.7033ZM11.2687 5.83333H14.167V6.5275L12.0462 7.97417L12.9287 10.7392L12.3612 11.1358L10.0128 9.5125L7.69949 11.1358L7.15283 10.7242L7.97283 7.93167L5.83449 6.53167V5.83333H8.75116L9.64366 2.80333H10.3787L11.2687 5.83333Z" fill="#372D20"/>
</svg>
